<svg xmlns="http://www.w3.org/2000/svg" viewBox="0 0 64 64" width="64" height="64">
  <!-- Singapore flag colors background -->
  <rect width="64" height="32" fill="#DC143C"/>
  <rect y="32" width="64" height="32" fill="#FFFFFF"/>
  
  <!-- Sun -->
  <circle cx="24" cy="24" r="8" fill="#FFD700" stroke="#FFA500" stroke-width="2"/>
  
  <!-- Sun rays -->
  <g transform="translate(24,24)">
    <path d="M 0,-14 L 0,-11" stroke="#FFA500" stroke-width="2" stroke-linecap="round"/>
    <path d="M 10,-10 L 8,-8" stroke="#FFA500" stroke-width="2" stroke-linecap="round"/>
    <path d="M 14,0 L 11,0" stroke="#FFA500" stroke-width="2" stroke-linecap="round"/>
    <path d="M 10,10 L 8,8" stroke="#FFA500" stroke-width="2" stroke-linecap="round"/>
    <path d="M 0,14 L 0,11" stroke="#FFA500" stroke-width="2" stroke-linecap="round"/>
    <path d="M -10,10 L -8,8" stroke="#FFA500" stroke-width="2" stroke-linecap="round"/>
    <path d="M -14,0 L -11,0" stroke="#FFA500" stroke-width="2" stroke-linecap="round"/>
    <path d="M -10,-10 L -8,-8" stroke="#FFA500" stroke-width="2" stroke-linecap="round"/>
  </g>
  
  <!-- Cloud -->
  <g transform="translate(32,36)">
    <ellipse cx="0" cy="0" rx="12" ry="8" fill="#FFFFFF" stroke="#E0E0E0" stroke-width="1"/>
    <ellipse cx="8" cy="-2" rx="8" ry="6" fill="#FFFFFF" stroke="#E0E0E0" stroke-width="1"/>
    <ellipse cx="14" cy="2" rx="6" ry="4" fill="#FFFFFF" stroke="#E0E0E0" stroke-width="1"/>
  </g>
  
  <!-- Camera icon -->
  <g transform="translate(42,42)">
    <rect x="-8" y="-4" width="16" height="12" rx="2" fill="#333333" stroke="#000000" stroke-width="1"/>
    <circle cx="0" cy="2" r="3" fill="#555555"/>
    <circle cx="0" cy="2" r="2" fill="#777777"/>
    <rect x="-3" y="-6" width="6" height="2" rx="1" fill="#333333"/>
    <circle cx="6" cy="-2" r="1" fill="#FF0000"/>
  </g>
</svg>